<svg width="18" height="18" viewBox="0 0 18 18" fill="none" xmlns="http://www.w3.org/2000/svg">
<path d="M14.9465 9.87764C14.7582 9.87764 14.5613 9.81771 14.3729 9.77491C13.9915 9.69086 13.6167 9.57927 13.2514 9.44101C12.8542 9.29652 12.4176 9.30403 12.0257 9.46208C11.6337 9.62013 11.314 9.91757 11.1282 10.2971L10.9398 10.6824C10.106 10.2185 9.3397 9.6424 8.66251 8.97014C7.99024 8.29295 7.41411 7.5267 6.95024 6.69282L7.30982 6.45311C7.6894 6.26725 7.98683 5.94758 8.14488 5.55561C8.30294 5.16364 8.31044 4.72706 8.16595 4.32989C8.03002 3.96383 7.91847 3.58916 7.83206 3.20836C7.78925 3.02001 7.75501 2.8231 7.72932 2.62619C7.62536 2.02314 7.30949 1.47703 6.83862 1.08621C6.36774 0.695378 5.77279 0.485516 5.16092 0.494412H2.59252C2.22355 0.490948 1.85817 0.567024 1.52124 0.717461C1.18432 0.867899 0.883768 1.08917 0.640044 1.3662C0.39632 1.64323 0.215148 1.96953 0.108862 2.32287C0.00257584 2.67621 -0.0263291 3.04831 0.0241149 3.41383C0.48021 7.0005 2.11824 10.333 4.67947 12.8849C7.2407 15.4369 10.5791 17.0628 14.1675 17.5058H14.4928C15.1241 17.5067 15.7337 17.2751 16.205 16.8551C16.4759 16.6129 16.6923 16.3159 16.8398 15.9839C16.9874 15.6518 17.0629 15.2922 17.0612 14.9288V12.3604C17.0507 11.7657 16.8341 11.1931 16.4485 10.7403C16.0628 10.2875 15.532 9.98263 14.9465 9.87764ZM15.3746 15.0144C15.3744 15.136 15.3484 15.2561 15.2982 15.3669C15.248 15.4776 15.1748 15.5763 15.0835 15.6565C14.9881 15.7396 14.8763 15.8016 14.7553 15.8385C14.6344 15.8754 14.507 15.8863 14.3815 15.8706C11.1752 15.4595 8.19697 13.9926 5.91664 11.7015C3.63631 9.41027 2.18364 6.42514 1.78775 3.21692C1.77413 3.09151 1.78607 2.96464 1.82285 2.84398C1.85964 2.72332 1.92051 2.61136 2.00178 2.51489C2.08201 2.42357 2.18077 2.35038 2.29148 2.30019C2.4022 2.25 2.52233 2.22396 2.64389 2.2238H5.21229C5.41138 2.21937 5.60579 2.28449 5.76205 2.40793C5.91831 2.53138 6.02665 2.70544 6.06842 2.90015C6.10267 3.13416 6.14547 3.36532 6.19684 3.59362C6.29574 4.04492 6.42736 4.48843 6.59066 4.92063L5.39208 5.47711C5.28959 5.52413 5.19741 5.59093 5.12082 5.67368C5.04422 5.75642 4.98473 5.85348 4.94575 5.95928C4.90677 6.06508 4.88907 6.17754 4.89367 6.2902C4.89828 6.40286 4.92509 6.5135 4.97257 6.61577C6.20472 9.25502 8.32626 11.3766 10.9655 12.6087C11.1739 12.6943 11.4077 12.6943 11.6162 12.6087C11.7229 12.5705 11.8211 12.5115 11.9048 12.4351C11.9886 12.3587 12.0564 12.2663 12.1042 12.1635L12.635 10.9649C13.0776 11.1232 13.5293 11.2547 13.9877 11.3588C14.216 11.4101 14.4471 11.4529 14.6811 11.4872C14.8758 11.5289 15.0499 11.6373 15.1733 11.7935C15.2968 11.9498 15.3619 12.1442 15.3575 12.3433L15.3746 15.0144Z" fill="black"/>
</svg>
