<svg width="40" height="41" viewBox="0 0 40 41" fill="none" xmlns="http://www.w3.org/2000/svg">
<path d="M29.9486 13.9175C28.3191 13.9168 26.7147 14.3298 25.279 15.1195C25.148 14.766 24.9151 14.4616 24.6112 14.2469C24.3074 14.0322 23.947 13.9173 23.5779 13.9175H16.297C16.058 13.9174 15.8212 13.9655 15.6003 14.0592C15.3794 14.1529 15.1787 14.2902 15.0096 14.4634C14.8406 14.6366 14.7065 14.8423 14.6151 15.0686C14.5237 15.2949 14.4767 15.5375 14.4768 15.7824V38.1615C14.4767 38.4065 14.5237 38.649 14.6151 38.8754C14.7065 39.1017 14.8406 39.3073 15.0096 39.4805C15.1787 39.6537 15.3794 39.7911 15.6003 39.8848C15.8212 39.9785 16.058 40.0266 16.297 40.0265H23.5779C23.817 40.0266 24.0537 39.9785 24.2746 39.8848C24.4955 39.7911 24.6962 39.6537 24.8653 39.4805C25.0343 39.3073 25.1684 39.1017 25.2598 38.8754C25.3512 38.649 25.3982 38.4065 25.3981 38.1615V27.9044C25.3981 27.4098 25.5899 26.9355 25.9312 26.5857C26.2726 26.236 26.7356 26.0395 27.2183 26.0395C27.7011 26.0395 28.164 26.236 28.5054 26.5857C28.8468 26.9355 29.0385 27.4098 29.0385 27.9044V38.1615C29.0384 38.4065 29.0854 38.649 29.1768 38.8754C29.2682 39.1017 29.4023 39.3073 29.5713 39.4805C29.7404 39.6537 29.9411 39.7911 30.162 39.8848C30.3829 39.9785 30.6197 40.0266 30.8587 40.0265H38.1396C38.3787 40.0266 38.6154 39.9785 38.8363 39.8848C39.0572 39.7911 39.2579 39.6537 39.427 39.4805C39.596 39.3073 39.7301 39.1017 39.8215 38.8754C39.913 38.649 39.9599 38.4065 39.9598 38.1615V24.1746C39.9565 21.4553 38.9007 18.8483 37.024 16.9255C35.1472 15.0026 32.6027 13.9209 29.9486 13.9175ZM36.3194 36.2966H32.679V27.9044C32.679 26.4206 32.1036 24.9976 31.0796 23.9483C30.0555 22.8991 28.6666 22.3097 27.2183 22.3097C25.7701 22.3097 24.3811 22.8991 23.3571 23.9483C22.333 24.9976 21.7577 26.4206 21.7577 27.9044V36.2966H18.1172V17.6474H21.7577V18.9586C21.7579 19.3451 21.8752 19.7219 22.0934 20.037C22.3116 20.3522 22.6199 20.5902 22.9758 20.7181C23.3317 20.8461 23.7176 20.8577 24.0801 20.7513C24.4427 20.6449 24.7641 20.4258 24.9999 20.1242C25.8168 19.0613 26.9372 18.2862 28.2048 17.9073C29.4724 17.5283 30.8239 17.5644 32.0705 18.0105C33.3171 18.4565 34.3966 19.2903 35.1584 20.3954C35.9201 21.5005 36.326 22.8217 36.3194 24.1746V36.2966ZM10.8364 13.9175H3.55553C3.31646 13.9174 3.0797 13.9655 2.8588 14.0592C2.6379 14.1529 2.43719 14.2902 2.26814 14.4634C2.09909 14.6366 1.96502 14.8423 1.87359 15.0686C1.78216 15.2949 1.73518 15.5375 1.73531 15.7824V38.1615C1.73517 38.4065 1.78216 38.649 1.87359 38.8754C1.96501 39.1017 2.09908 39.3073 2.26813 39.4805C2.43718 39.6537 2.6379 39.7911 2.8588 39.8848C3.0797 39.9785 3.31645 40.0266 3.55553 40.0265H10.8364C11.0755 40.0266 11.3122 39.9785 11.5331 39.8848C11.754 39.7911 11.9547 39.6537 12.1238 39.4805C12.2928 39.3073 12.4269 39.1017 12.5183 38.8754C12.6097 38.649 12.6567 38.4065 12.6566 38.1615V15.7824C12.6567 15.5375 12.6097 15.2949 12.5183 15.0686C12.4269 14.8423 12.2928 14.6366 12.1238 14.4634C11.9547 14.2902 11.754 14.1529 11.5331 14.0592C11.3122 13.9655 11.0755 13.9174 10.8364 13.9175ZM9.01617 36.2966H5.37574V17.6474H9.01617V36.2966ZM7.22262 0.0107727C6.42602 -0.038082 5.62805 0.0795831 4.87723 0.356613C4.12641 0.633642 3.43844 1.06425 2.85514 1.62224C2.27184 2.18023 1.80542 2.85395 1.48423 3.60243C1.16304 4.35091 0.9938 5.1585 0.986799 5.97609C0.979798 6.79368 1.13518 7.60419 1.44351 8.35833C1.75183 9.11246 2.20664 9.79447 2.78029 10.3629C3.35394 10.9313 4.03444 11.3742 4.7804 11.6646C5.52636 11.9551 6.3222 12.0871 7.11951 12.0526H7.17105C7.96976 12.1012 8.76975 11.9824 9.52214 11.7036C10.2745 11.4247 10.9635 10.9916 11.547 10.4307C12.1305 9.86978 12.5963 9.19286 12.9158 8.44131C13.2353 7.68975 13.402 6.87934 13.4055 6.05958C13.409 5.23982 13.2493 4.42794 12.9362 3.67354C12.6231 2.91914 12.1632 2.23807 11.5845 1.67195C11.0059 1.10582 10.3206 0.666526 9.57061 0.380908C8.82064 0.0952899 8.02171 -0.0306536 7.22262 0.0107727ZM7.17107 8.32274H7.11951C6.80473 8.3619 6.48542 8.33165 6.18299 8.23402C5.88056 8.13639 5.602 7.97364 5.36599 7.75667C5.12998 7.5397 4.94198 7.27354 4.81459 6.97603C4.68721 6.67852 4.62338 6.35655 4.6274 6.0317C4.6274 4.64028 5.64593 3.7406 7.22262 3.7406C7.54061 3.69717 7.86399 3.72406 8.17098 3.81946C8.47797 3.91486 8.76145 4.07655 9.00231 4.29365C9.24317 4.51075 9.43583 4.77821 9.56731 5.07802C9.69879 5.37783 9.76603 5.70302 9.76451 6.0317C9.76451 7.4231 8.74598 8.32274 7.17107 8.32274Z" fill="black"/>
</svg>
