<svg width="18" height="14" viewBox="0 0 18 14" fill="none" xmlns="http://www.w3.org/2000/svg">
<path d="M14.502 0.175537H2.55918C1.88044 0.175537 1.22951 0.445165 0.749567 0.925104C0.269627 1.40504 0 2.05598 0 2.73472V11.2653C0 11.9441 0.269627 12.595 0.749567 13.0749C1.22951 13.5549 1.88044 13.8245 2.55918 13.8245H14.502C15.1808 13.8245 15.8317 13.5549 16.3116 13.0749C16.7916 12.595 17.0612 11.9441 17.0612 11.2653V2.73472C17.0612 2.05598 16.7916 1.40504 16.3116 0.925104C15.8317 0.445165 15.1808 0.175537 14.502 0.175537ZM14.1523 1.88166L9.13628 6.89765C9.05698 6.97761 8.96263 7.04107 8.85867 7.08438C8.75472 7.12769 8.64322 7.14999 8.53061 7.14999C8.41799 7.14999 8.30649 7.12769 8.20254 7.08438C8.09859 7.04107 8.00424 6.97761 7.92493 6.89765L2.90894 1.88166H14.1523ZM15.3551 11.2653C15.3551 11.4916 15.2652 11.7086 15.1052 11.8685C14.9453 12.0285 14.7283 12.1184 14.502 12.1184H2.55918C2.33294 12.1184 2.11596 12.0285 1.95598 11.8685C1.796 11.7086 1.70612 11.4916 1.70612 11.2653V3.08447L6.72212 8.10047C7.20196 8.57972 7.85242 8.84891 8.53061 8.84891C9.20879 8.84891 9.85925 8.57972 10.3391 8.10047L15.3551 3.08447V11.2653Z" fill="black"/>
</svg>
